<svg width="111" height="22" viewBox="0 0 111 22" fill="none" xmlns="http://www.w3.org/2000/svg">
<path d="M5.65569 1.84312C3.70489 0.692504 1.09292 1.22404e-05 1.09292 1.22404e-05C1.09292 1.22404e-05 0.616674 3.14296 1.05206 5.47945C2.44572 2.9945 4.70184 2.01984 5.65569 1.84312Z" fill="#427A5B"/>
<path d="M2.76551 4.41392C-0.208559 7.38903 -0.208559 12.2059 2.74372 15.181C4.34514 11.4757 7.19938 8.38073 10.7617 6.539C7.74408 9.08909 5.63064 12.6527 4.88984 16.6958C7.72229 18.0362 11.2084 17.5458 13.5506 15.2028C17.3417 11.4103 17.9627 0.000305176 17.9627 0.000305176C17.9627 0.000305176 6.55663 0.621481 2.76551 4.41392Z" fill="#B4CD93"/>
<path d="M37.8319 17.2195H27.585V0.356756H37.8319V2.52108H29.9149V7.70595H37.0949V9.89405H29.9149V15.0551H37.8319V17.2195Z" fill="#403F3F"/>
<path d="M42.3351 10.6076V17.2195H40.1002V5.77946H42.2875V7.42054C43.1196 5.99351 44.4748 5.44649 45.8062 5.44649C48.5403 5.44649 49.8955 7.42054 49.8955 9.96541V17.2195H47.6606V10.3459C47.6606 8.75243 46.9949 7.46811 44.9978 7.46811C43.2385 7.46811 42.3351 8.87135 42.3351 10.6076Z" fill="#403F3F"/>
<path d="M54.1874 10.3222H60.4402C60.3926 8.68108 59.3228 7.39676 57.3019 7.39676C55.4237 7.39676 54.2825 8.84757 54.1874 10.3222ZM60.773 13.2951L62.6988 13.9611C62.0569 15.9827 60.2262 17.5762 57.5634 17.5762C54.4965 17.5762 51.8099 15.3405 51.8099 11.4638C51.8099 7.87243 54.4014 5.4227 57.2781 5.4227C60.7968 5.4227 62.7701 7.84865 62.7701 11.4162C62.7701 11.7016 62.7464 11.987 62.7226 12.1297H54.1161C54.1636 14.1751 55.6377 15.6022 57.5634 15.6022C59.4179 15.6022 60.3451 14.5795 60.773 13.2951Z" fill="#403F3F"/>
<path d="M67.1445 17.2195H64.9097V0H67.1445V17.2195Z" fill="#403F3F"/>
<path d="M73.086 22H70.6372L73.4902 15.9589L68.5688 5.77946H71.1365L74.7027 13.6757L78.1263 5.77946H80.5276L73.086 22Z" fill="#403F3F"/>
<path d="M90.1906 17.2195H81.0135V15.2692L87.29 7.80108L80.2189 7.72973L81.1086 5.77946H90.0717V7.72973L83.7951 15.1978H90.1906V17.2195Z" fill="#403F3F"/>
<path d="M93.7763 10.3222H100.029C99.9816 8.68108 98.9117 7.39676 96.8908 7.39676C95.0126 7.39676 93.8714 8.84757 93.7763 10.3222ZM100.362 13.2951L102.288 13.9611C101.646 15.9827 99.8151 17.5762 97.1523 17.5762C94.0854 17.5762 91.3988 15.3405 91.3988 11.4638C91.3988 7.87243 93.9903 5.4227 96.867 5.4227C100.386 5.4227 102.359 7.84865 102.359 11.4162C102.359 11.7016 102.335 11.987 102.311 12.1297H93.705C93.7525 14.1751 95.2266 15.6022 97.1523 15.6022C99.0068 15.6022 99.934 14.5795 100.362 13.2951Z" fill="#403F3F"/>
<path d="M110.846 5.66054V8.03892C110.514 7.99135 110.181 7.96757 109.872 7.96757C107.994 7.96757 106.733 8.96649 106.733 11.4876V17.2195H104.499V5.77946H106.686V7.7773C107.518 6.0173 108.945 5.58919 110.109 5.58919C110.419 5.58919 110.728 5.63676 110.846 5.66054Z" fill="#403F3F"/>
</svg>
