<svg width="64" height="64" viewBox="0 0 18 22" fill="none" xmlns="http://www.w3.org/2000/svg">
<path d="M5.65569 1.84312C3.70489 0.692504 1.09292 1.22404e-05 1.09292 1.22404e-05C1.09292 1.22404e-05 0.616674 3.14296 1.05206 5.47945C2.44572 2.9945 4.70184 2.01984 5.65569 1.84312Z" fill="#427A5B"/>
<path d="M2.76551 4.41392C-0.208559 7.38903 -0.208559 12.2059 2.74372 15.181C4.34514 11.4757 7.19938 8.38073 10.7617 6.539C7.74408 9.08909 5.63064 12.6527 4.88984 16.6958C7.72229 18.0362 11.2084 17.5458 13.5506 15.2028C17.3417 11.4103 17.9627 0.000305176 17.9627 0.000305176C17.9627 0.000305176 6.55663 0.621481 2.76551 4.41392Z" fill="#B4CD93"/>
</svg>
